<svg width="19" height="19" viewBox="0 0 19 19" fill="none" xmlns="http://www.w3.org/2000/svg">
<g clip-path="url(#clip0_250_720)">
<path d="M1.52375 5.18005C0.962656 5.18005 0.5 5.64271 0.5 6.2038V15.6201C0.5 16.2177 0.982344 16.7001 1.58 16.7001H3.05375C3.22531 17.721 4.11266 18.5001 5.18 18.5001C6.24734 18.5001 7.13469 17.721 7.30625 16.7001H10.6363C10.902 16.7001 11.1397 16.5876 11.3225 16.4188C11.5095 16.5833 11.7486 16.6972 12.02 16.7001H12.4138C12.5853 17.721 13.4727 18.5001 14.54 18.5001C15.7283 18.5001 16.7 17.5283 16.7 16.3401C16.7 15.1518 15.7283 14.1801 14.54 14.1801C13.4727 14.1801 12.5853 14.9591 12.4138 15.9801H12.02C11.9525 15.9801 11.8498 15.9336 11.7725 15.8563C11.6952 15.779 11.66 15.6861 11.66 15.6201V8.78005C11.66 8.64505 11.885 8.42005 12.02 8.42005H14.9C15.1827 8.42005 15.5806 8.7224 15.8563 9.05005C15.8591 9.05427 15.8647 9.05708 15.8675 9.0613L15.9238 9.14005H14.18C13.6063 9.14005 13.1 9.60412 13.1 10.2201V11.6601C13.1 11.9596 13.235 12.2226 13.4263 12.4138C13.6175 12.6051 13.8805 12.7401 14.18 12.7401H17.78V15.6201C17.78 15.7551 17.555 15.9801 17.42 15.9801H16.7V16.7001H17.42C18.0177 16.7001 18.5 16.2177 18.5 15.6201V12.1551C18.5 11.331 17.9263 10.6026 17.9263 10.6026H17.915L16.43 8.62255V8.6113L16.4188 8.60005C16.0869 8.19927 15.5891 7.70005 14.9 7.70005H12.02C11.892 7.70005 11.7739 7.72677 11.66 7.76755V6.2263C11.66 5.67365 11.2241 5.18005 10.6475 5.18005H1.52375ZM1.52375 5.90005H10.6475C10.8022 5.90005 10.94 6.04912 10.94 6.2263V15.6763C10.94 15.8451 10.8064 15.9801 10.6363 15.9801H7.30625C7.13469 14.9591 6.24734 14.1801 5.18 14.1801C4.11266 14.1801 3.22531 14.9591 3.05375 15.9801H1.58C1.445 15.9801 1.22 15.7536 1.22 15.6201V6.2038C1.22 6.03505 1.35219 5.90005 1.52375 5.90005ZM14.18 9.86005H16.4638L17.3413 11.0301C17.3413 11.0301 17.6675 11.5883 17.735 12.0201H14.18C14.1195 12.0201 14.0225 11.9751 13.9438 11.8963C13.865 11.8176 13.82 11.7205 13.82 11.6601V10.2201C13.82 10.0386 14.0338 9.86005 14.18 9.86005ZM5.18 14.9001C5.98016 14.9001 6.62 15.5399 6.62 16.3401C6.62 17.1402 5.98016 17.7801 5.18 17.7801C4.37984 17.7801 3.74 17.1402 3.74 16.3401C3.74 15.5399 4.37984 14.9001 5.18 14.9001ZM14.54 14.9001C15.3402 14.9001 15.98 15.5399 15.98 16.3401C15.98 17.1402 15.3402 17.7801 14.54 17.7801C13.7398 17.7801 13.1 17.1402 13.1 16.3401C13.1 15.5399 13.7398 14.9001 14.54 14.9001Z" fill="#7A7A7A"/>
</g>
<defs>
<clipPath id="clip0_250_720">
<rect width="18" height="18" fill="white" transform="translate(0.5 0.5)"/>
</clipPath>
</defs>
</svg>
